<?xml version="1.0" encoding="UTF-8" standalone="no"?>
<svg xmlns="http://www.w3.org/2000/svg" xmlns:xlink="http://www.w3.org/1999/xlink" style="isolation:isolate" viewBox="100.511 57.895 1798.977 1780.105" width="1798.977pt" height="1780.105pt"><g><g><defs><filter id="cnsfPfhSso0AG1ixqE4zknahFNCzGqVL" x="-200%" y="-200%" width="400%" height="400%" filterUnits="objectBoundingBox" color-interpolation-filters="sRGB"><feGaussianBlur xmlns="http://www.w3.org/2000/svg" in="SourceGraphic" stdDeviation="85.01345944421276"/><feOffset xmlns="http://www.w3.org/2000/svg" dx="0" dy="0" result="pf_100_offsetBlur"/><feFlood xmlns="http://www.w3.org/2000/svg" flood-color="#F0306D" flood-opacity="1"/><feComposite xmlns="http://www.w3.org/2000/svg" in2="pf_100_offsetBlur" operator="in" result="pf_100_dropShadow"/><feBlend xmlns="http://www.w3.org/2000/svg" in="SourceGraphic" in2="pf_100_dropShadow" mode="normal"/></filter></defs><g filter="url(#cnsfPfhSso0AG1ixqE4zknahFNCzGqVL)"><linearGradient id="_lgradient_0" x1="0.5" y1="0" x2="0.5000000000000001" y2="1" gradientTransform="matrix(929.208,0,0,1264.105,512.905,315.895)" gradientUnits="userSpaceOnUse"><stop offset="24.583333333333332%" stop-opacity="1" style="stop-color:rgb(48,241,221)"/><stop offset="97.91666666666666%" stop-opacity="1" style="stop-color:rgb(227,17,112)"/></linearGradient><path d=" M 988.091 1579.988 C 1009.393 1542.469 1070.835 1497.108 1175.573 1469.807 C 1261.336 1443.236 1334.74 1390.452 1372.951 1312.657 C 1411.163 1234.861 1425.178 1107.312 1410.891 1014.672 C 1410.891 1014.672 1401.823 1022.094 1384.22 1022.094 C 1366.618 1022.094 1348.211 1004.504 1348.211 967.394 C 1348.211 903.069 1442.113 856.334 1442.113 742.257 C 1442.113 639.449 1373.768 557.249 1250.895 526.188 C 1250.895 526.188 1242.261 564.399 1215.108 564.399 C 1187.956 564.399 1136.273 519.038 1136.273 462.135 C 1136.273 405.232 1187.127 416.502 1229.458 471.759 C 1229.458 471.759 1216.543 315.895 1091.456 315.895 C 1075.783 315.895 1060.667 320.299 1060.667 320.299 C 1060.667 320.299 1063.413 399.196 998.544 399.196 C 977.515 399.196 962.807 383.659 960.333 372.526 C 960.333 372.526 932.574 404.96 886.112 426.126 C 839.65 447.291 814.365 447.019 794.573 449.221 C 774.781 451.423 744.82 467.912 738.215 518.221 C 732.438 556.705 769.833 602.338 769.833 602.338 C 769.833 602.338 726.129 711.468 688.462 711.468 C 656.3 711.468 651.079 672.155 650.523 663.917 C 646.119 664.189 512.905 754.083 512.905 836.827 C 512.905 887.816 572.999 940.736 591.69 956.124 C 610.382 971.513 639.39 990.761 640.342 1029.937 L 640.342 1055.085 C 640.342 1055.085 634.021 1097.837 588.115 1097.837 C 561.173 1097.837 548.259 1076.671 548.259 1076.671 C 548.259 1076.671 553.937 1295.895 699.088 1393.755 C 796.577 1460.096 840.565 1438.102 988.091 1580 L 988.091 1579.988 Z " fill="url(#_lgradient_0)"/></g><linearGradient id="_lgradient_1" x1="0.5" y1="0.968625081767655" x2="0.4999999999999999" y2="0.26175612101586654" gradientTransform="matrix(628.96,0,0,961.989,668.385,504.194)" gradientUnits="userSpaceOnUse"><stop offset="0%" stop-opacity="1" style="stop-color:rgb(48,241,221)"/><stop offset="100%" stop-opacity="1" style="stop-color:rgb(255,255,255)"/></linearGradient><path d=" M 707.697 1251.635 L 803.912 939.363 L 668.385 887.952 L 756.906 734.291 L 870.711 712.296 L 885.555 658.14 L 806.114 623.504 L 860.815 522.613 L 984.516 504.194 L 1104.643 522.885 L 1163.475 623.776 L 1079.358 658.14 L 1090.9 711.196 L 1208.008 729.887 L 1297.345 898.665 L 1165.677 938.249 L 1243.745 1189.227 C 1243.745 1189.227 1277.008 1255.482 1255.843 1315.675 C 1255.843 1315.675 1237.696 1271.414 1198.941 1264.265 C 1198.941 1264.265 1209.109 1303.577 1171.726 1333.129 C 1134.344 1362.681 1099.151 1368.458 1081.832 1373.814 C 1064.514 1379.171 1014.205 1401.301 975.313 1466.182 C 975.313 1466.182 919.375 1430.037 908.378 1372.577 C 897.381 1315.118 869.066 1271.971 826.463 1248.876 C 826.463 1248.876 816.839 1294.509 786.05 1294.509 C 755.261 1294.509 693.138 1250.521 707.71 1251.622 L 707.697 1251.635 Z " fill="url(#_lgradient_1)"/><path d=" M 980.397 1039.685 L 1107.03 909.204 L 1240.813 871.822 L 1183.268 757.781 L 1059.01 737.989 L 1038.673 628.316 L 1113.859 597.526 L 1083.342 541.032 L 983.972 526.188 L 883.081 541.725 L 855.187 597.106 L 928.307 630.505 L 900.4 738.546 L 781.51 761.913 L 725.387 865.773 L 859.628 915.624 L 980.397 1039.685 Z  M 982.871 765.896 L 859.628 809.513 L 984.974 883.178 L 1105.744 808.784 L 982.871 765.896 Z " fill-rule="evenodd" fill="rgb(0,0,0)"/><path d=" M 963.722 334.859 C 963.722 334.859 982.414 283.176 1046.924 268.147 C 1046.924 268.147 1010.271 244 987.547 244 C 964.823 244 941.728 268.147 963.722 334.859 L 963.722 334.859 Z " fill="rgb(48,241,221)"/></g><g><radialGradient id="_rgradient_0" fx="0.5" fy="0.5" cx="0.5" cy="0.5" r="0.5" gradientTransform="matrix(1948,0,-4,444,32.333,1145.667)" gradientUnits="userSpaceOnUse"><stop offset="0%" stop-opacity="1" style="stop-color:rgb(96,0,53)"/><stop offset="100%" stop-opacity="1" style="stop-color:rgb(8,3,17)"/></radialGradient><path d=" M 1231.117 1251.097 L 1442.996 1266.463 L 1610.984 1299.937 L 1610.984 1299.937 L 1610.984 1299.937 L 1815.946 1388.585 L 1899.489 1347.834 L 1782.727 1180.564 L 1690.05 1137.887 L 1657.825 1032.469 L 1680.698 969.344 L 1574.997 949.729 L 1575.094 949.342 L 1572.006 949.175 L 1549.772 945.049 L 1547.949 947.874 L 1547.949 947.874 L 1397.545 939.743 L 1388.343 947.37 L 1387.587 944.901 L 1244.737 926.383 L 1250.353 937.899 L 1242.267 937.336 L 1242.164 936.526 L 1043.947 919.482 L 1045.751 891.734 L 986.216 914.43 L 988.477 905.403 L 862.66 937.281 L 848.187 995.532 L 843.029 997.251 L 846.221 920.321 L 753.326 930.349 L 753.326 930.349 L 755.263 926.383 L 618.244 944.141 L 613.724 930.118 L 440.307 949.854 L 440.307 949.854 L 440.307 949.854 L 435.235 942.859 L 245.477 967.835 L 260.296 1027.409 L 261.125 1030.737 L 209.505 1191.697 L 100.511 1347.821 L 192.431 1387.863 L 378.368 1304.207 L 378.368 1304.207 L 459.035 1283.247 L 457.872 1287.045 L 530.082 1272.098 L 530.082 1272.098 L 530.082 1272.098 L 529.99 1272.387 L 653.964 1256.54 L 652.987 1272.151 L 767.199 1255.965 L 800.575 1253.275 L 796.06 1270.506 L 910.378 1246.244 L 910.378 1246.244 L 910.378 1246.244 L 910.378 1246.244 L 910.378 1246.244 L 910.261 1252.421 L 1081.16 1248.602 L 1081.29 1251.803 L 1220.504 1248.957 L 1231.117 1251.097 Z " fill="url(#_rgradient_0)"/><linearGradient id="_lgradient_2" x1="0.5" y1="0.4772024359341235" x2="0.4999999999999997" y2="0.8459377083676538" gradientTransform="matrix(1622.747,0,0,338.163,188.624,939.627)" gradientUnits="userSpaceOnUse"><stop offset="1.6666666666666667%" stop-opacity="1" style="stop-color:rgb(251,161,15)"/><stop offset="99.16666666666667%" stop-opacity="1" style="stop-color:rgb(255,126,126)"/></linearGradient><path d=" M 345.947 1161.325 L 296.553 1181.488 L 312.956 1130.449 L 354.285 1115.32 L 360.878 1133.108 L 345.947 1161.325 L 345.947 1161.325 L 345.947 1161.325 Z  M 420.44 977.245 L 285.383 995.021 L 291.506 1019.637 L 294.549 1031.847 L 238.649 1206.129 L 188.624 1277.789 L 383.058 1199.722 L 417.509 1119.81 L 397.716 1097.829 L 431.363 1059.159 L 442.063 1046.876 L 443.164 1008.578 L 420.44 977.245 L 420.44 977.245 L 420.44 977.245 Z  M 371.331 1061.72 L 331.66 1072.532 L 342.929 1038.267 L 352.071 1036.757 L 388.921 1030.659 L 380.856 1044.897 L 371.331 1061.72 Z  M 574.016 1060.991 L 608.652 1019.204 L 591.198 965.048 L 465.567 979.348 L 470.242 998.039 L 461.398 1025.525 L 406.61 1195.689 L 466.395 1180.152 L 489.763 1102.22 L 519.315 1096.307 L 524.535 1111.844 L 504.607 1176.577 L 559.728 1165.172 L 586.658 1075.971 L 578.197 1065.939 L 574.016 1060.991 L 574.016 1060.991 Z  M 532.514 1051.601 L 503.506 1057.007 L 508.07 1041.68 L 513.674 1022.915 L 552.022 1017.287 L 533.206 1050.377 L 532.514 1051.601 Z  M 743.759 1158.851 L 743.091 1074.499 L 742.25 967.522 L 696.344 973.843 L 700.191 965.951 L 637.103 974.127 L 615.27 1042.67 L 575.945 1166.137 L 631.883 1158.987 L 653.185 1097.544 L 690.988 1111.708 L 687.549 1166.817 L 743.759 1158.851 L 743.759 1158.851 Z  M 666.742 1058.974 L 667.88 1055.77 L 685.718 1005.374 L 696.888 1010.681 L 693.746 1062.203 L 693.412 1067.683 L 666.742 1058.974 L 666.742 1058.974 Z  M 889.232 963.724 L 862.933 1069.551 L 849.363 1029.051 L 830.399 1035.384 L 814.689 1067.361 L 807.304 1082.391 L 807.984 1066.112 L 812.537 956.302 L 757.551 962.24 L 758.182 1057.861 L 758.838 1156.426 L 804.471 1152.752 L 828.939 1110.063 L 846.072 1138.551 L 840.382 1160.273 L 894.353 1148.818 L 910.298 1085.149 L 944.204 949.795 L 889.232 963.724 L 889.232 963.724 Z  M 1000.105 1098.237 L 1001.07 1083.356 L 1010.409 939.627 L 946.629 963.947 L 944.576 1071.455 L 943.054 1151.565 L 1053.841 1149.091 L 1056.043 1099.474 L 1000.105 1098.237 L 1000.105 1098.237 Z  M 1637.534 994.052 L 1623.927 1031.603 L 1663.512 1161.077 L 1761.346 1206.129 L 1811.371 1277.79 L 1616.937 1199.721 L 1552.593 999.991 L 1565.1 980.611 L 1637.534 994.052 Z  M 1387.959 989.456 L 1408.377 972.536 L 1534.428 979.348 L 1529.753 998.039 L 1538.597 1025.525 L 1593.385 1195.689 L 1440.267 1165.172 L 1413.337 1075.971 L 1387.959 989.456 Z  M 1478.681 1128.245 L 1528.626 1136.904 L 1497.29 1029.414 L 1448.529 1024.026 L 1478.681 1128.245 Z  M 1231.485 968.825 L 1303.651 973.843 L 1299.804 965.951 L 1362.892 974.127 L 1421.16 1164.685 L 1259.111 1152.934 L 1231.485 968.825 Z  M 1334.724 1020.779 L 1285.295 1015.831 L 1304.881 1116.442 L 1358.845 1122.833 L 1334.724 1020.779 Z  M 1213.548 966.351 L 1220.504 1017.287 L 1166.851 1015.831 L 1184.194 1149.583 L 1112.138 1151.052 L 1106.494 1018.614 L 1029.903 1020.573 L 1031.346 950.682 L 1213.548 966.351 Z " fill-rule="evenodd" fill="url(#_lgradient_2)"/><clipPath id="_clipPath_aSSZVh5B1Rt7QCjgonfrAqYCY6WZTapb"><path d=" M 345.947 1161.325 L 296.553 1181.488 L 312.956 1130.449 L 354.285 1115.32 L 360.878 1133.108 L 345.947 1161.325 L 345.947 1161.325 L 345.947 1161.325 Z  M 420.44 977.245 L 285.383 995.021 L 291.506 1019.637 L 294.549 1031.847 L 238.649 1206.129 L 188.624 1277.789 L 383.058 1199.722 L 417.509 1119.81 L 397.716 1097.829 L 431.363 1059.159 L 442.063 1046.876 L 443.164 1008.578 L 420.44 977.245 L 420.44 977.245 L 420.44 977.245 Z  M 371.331 1061.72 L 331.66 1072.532 L 342.929 1038.267 L 352.071 1036.757 L 388.921 1030.659 L 380.856 1044.897 L 371.331 1061.72 Z  M 574.016 1060.991 L 608.652 1019.204 L 591.198 965.048 L 465.567 979.348 L 470.242 998.039 L 461.398 1025.525 L 406.61 1195.689 L 466.395 1180.152 L 489.763 1102.22 L 519.315 1096.307 L 524.535 1111.844 L 504.607 1176.577 L 559.728 1165.172 L 586.658 1075.971 L 578.197 1065.939 L 574.016 1060.991 L 574.016 1060.991 Z  M 532.514 1051.601 L 503.506 1057.007 L 508.07 1041.68 L 513.674 1022.915 L 552.022 1017.287 L 533.206 1050.377 L 532.514 1051.601 Z  M 743.759 1158.851 L 743.091 1074.499 L 742.25 967.522 L 696.344 973.843 L 700.191 965.951 L 637.103 974.127 L 615.27 1042.67 L 575.945 1166.137 L 631.883 1158.987 L 653.185 1097.544 L 690.988 1111.708 L 687.549 1166.817 L 743.759 1158.851 L 743.759 1158.851 Z  M 666.742 1058.974 L 667.88 1055.77 L 685.718 1005.374 L 696.888 1010.681 L 693.746 1062.203 L 693.412 1067.683 L 666.742 1058.974 L 666.742 1058.974 Z  M 889.232 963.724 L 862.933 1069.551 L 849.363 1029.051 L 830.399 1035.384 L 814.689 1067.361 L 807.304 1082.391 L 807.984 1066.112 L 812.537 956.302 L 757.551 962.24 L 758.182 1057.861 L 758.838 1156.426 L 804.471 1152.752 L 828.939 1110.063 L 846.072 1138.551 L 840.382 1160.273 L 894.353 1148.818 L 910.298 1085.149 L 944.204 949.795 L 889.232 963.724 L 889.232 963.724 Z  M 1000.105 1098.237 L 1001.07 1083.356 L 1010.409 939.627 L 946.629 963.947 L 944.576 1071.455 L 943.054 1151.565 L 1053.841 1149.091 L 1056.043 1099.474 L 1000.105 1098.237 L 1000.105 1098.237 Z  M 1637.534 994.052 L 1623.927 1031.603 L 1663.512 1161.077 L 1761.346 1206.129 L 1811.371 1277.79 L 1616.937 1199.721 L 1552.593 999.991 L 1565.1 980.611 L 1637.534 994.052 Z  M 1387.959 989.456 L 1408.377 972.536 L 1534.428 979.348 L 1529.753 998.039 L 1538.597 1025.525 L 1593.385 1195.689 L 1440.267 1165.172 L 1413.337 1075.971 L 1387.959 989.456 Z  M 1478.681 1128.245 L 1528.626 1136.904 L 1497.29 1029.414 L 1448.529 1024.026 L 1478.681 1128.245 Z  M 1231.485 968.825 L 1303.651 973.843 L 1299.804 965.951 L 1362.892 974.127 L 1421.16 1164.685 L 1259.111 1152.934 L 1231.485 968.825 Z  M 1334.724 1020.779 L 1285.295 1015.831 L 1304.881 1116.442 L 1358.845 1122.833 L 1334.724 1020.779 Z  M 1213.548 966.351 L 1220.504 1017.287 L 1166.851 1015.831 L 1184.194 1149.583 L 1112.138 1151.052 L 1106.494 1018.614 L 1029.903 1020.573 L 1031.346 950.682 L 1213.548 966.351 Z " fill-rule="evenodd" fill="url(#_lgradient_2)"/></clipPath><g clip-path="url(#_clipPath_aSSZVh5B1Rt7QCjgonfrAqYCY6WZTapb)"><linearGradient id="_lgradient_3" x1="0.5" y1="0.901923728360277" x2="0.4999999999999999" y2="0.24186560644689337" gradientTransform="matrix(1595.748,0,0,262.814,198.475,845.638)" gradientUnits="userSpaceOnUse"><stop offset="0%" stop-opacity="1" style="stop-color:rgb(255,237,46)"/><stop offset="100%" stop-opacity="1" style="stop-color:rgb(255,124,94)"/></linearGradient><path d=" M 1730.073 1006.938 L 1568.886 1083.782 L 1558.365 1050.021 L 1411.573 1090.43 L 1398.316 1060.742 L 1220.248 1085.619 L 1218.187 1060.054 L 1090.568 1093.608 L 1029.748 1084.932 L 931.612 1082.458 L 923.107 1108.453 L 754.177 1062.915 L 750.595 1104.725 L 602.978 1056.069 L 590.608 1096.478 L 447.939 1050.296 L 426.678 1105.592 L 203.423 1046.035 L 198.475 845.638 L 1794.223 862.957 L 1730.073 1006.938 Z " fill="url(#_lgradient_3)"/></g></g></g></svg>